<svg xmlns="http://www.w3.org/2000/svg" xmlns:wrs="http://www.wiris.com/xml/cvs-extension" height="28" width="57" wrs:baseline="19"><!--MathML: <math xmlns="http://www.w3.org/1998/Math/MathML"><msub><mroot><mrow><mi>g</mi><mi>g</mi></mrow><mrow><mi>g</mi><mi>g</mi><mi>g</mi></mrow></mroot><mrow/></msub></math>--><defs><style type="text/css"/></defs><line stroke="#000000" stroke-linecap="square" stroke-width="1" x1="0.5" x2="1.5" y1="13.5" y2="13.5"/><line stroke="#000000" stroke-linecap="square" stroke-width="1" x1="2.5" x2="3.5" y1="13.5" y2="13.5"/><line stroke="#000000" stroke-linecap="square" stroke-width="1" x1="4.5" x2="5.5" y1="13.5" y2="13.5"/><line stroke="#000000" stroke-linecap="square" stroke-width="1" x1="6.5" x2="7.5" y1="13.5" y2="13.5"/><line stroke="#000000" stroke-linecap="square" stroke-width="1" x1="8.5" x2="9.5" y1="13.5" y2="13.5"/><line stroke="#000000" stroke-linecap="square" stroke-width="1" x1="10.5" x2="11.5" y1="13.5" y2="13.5"/><line stroke="#000000" stroke-linecap="square" stroke-width="1" x1="12.5" x2="13.5" y1="13.5" y2="13.5"/><line stroke="#000000" stroke-linecap="square" stroke-width="1" x1="14.5" x2="15.5" y1="13.5" y2="13.5"/><line stroke="#000000" stroke-linecap="square" stroke-width="1" x1="16.5" x2="17.5" y1="13.5" y2="13.5"/><polyline fill="none" points="12,-16 11,-16 5,0 2,-6" stroke="#000000" stroke-linecap="square" stroke-width="1" transform="translate(15.5,20.5)"/><polyline fill="none" points="5,0 2,-6" stroke="#000000" stroke-linecap="square" stroke-width="1" transform="translate(15.5,20.5)"/><line stroke="#000000" stroke-linecap="square" stroke-width="1" x1="27.5" x2="49.5" y1="4.5" y2="4.5"/><text font-family="Arial" font-size="12" font-style="italic" text-anchor="middle" x="3.5" y="11">g</text><text font-family="Arial" font-size="12" font-style="italic" text-anchor="middle" x="10.5" y="11">g</text><text font-family="Arial" font-size="12" font-style="italic" text-anchor="middle" x="17.5" y="11">g</text><text font-family="Arial" font-size="16" font-style="italic" text-anchor="middle" x="33.5" y="19">g</text><text font-family="Arial" font-size="16" font-style="italic" text-anchor="middle" x="42.5" y="19">g</text></svg>